<?xml version="1.0" encoding="utf-8"?>
<!-- Generator: Adobe Illustrator 16.0.0, SVG Export Plug-In . SVG Version: 6.00 Build 0)  -->
<!DOCTYPE svg PUBLIC "-//W3C//DTD SVG 1.1//EN" "http://www.w3.org/Graphics/SVG/1.1/DTD/svg11.dtd">
<svg version="1.1" id="Layer_1" xmlns="http://www.w3.org/2000/svg" xmlns:xlink="http://www.w3.org/1999/xlink" x="0px" y="0px"
	 width="512px" height="512px" viewBox="0 0 512 512" enable-background="new 0 0 512 512" xml:space="preserve">
<g>
	
		<radialGradient id="SVGID_1_" cx="725.8555" cy="620.2539" r="205.4053" gradientTransform="matrix(0 1 1 0 -312.3066 -427.377)" gradientUnits="userSpaceOnUse">
		<stop  offset="0.1429" style="stop-color:#D4EFFC"/>
		<stop  offset="0.8424" style="stop-color:#3E8FC6"/>
		<stop  offset="1" style="stop-color:#3499CD"/>
	</radialGradient>
	<path fill="url(#SVGID_1_)" d="M506.528,318.207c1.197-12.134,11.332-159.896-115.636-227.008
		C331.538,59.8,251.43,60.224,207.44,104.797c-77.735,78.673-11.829,161.136,12.832,169.332c0.938,0.274,0.588-0.366,0.343-1.358
		c-39.041-155.84,232.411-183.735,280.388,44.612C502.705,325.472,505.803,325.288,506.528,318.207z"/>
	
		<radialGradient id="SVGID_2_" cx="868.1484" cy="-616.9951" r="149.1277" gradientTransform="matrix(1 0 0 -1 -553 -278)" gradientUnits="userSpaceOnUse">
		<stop  offset="0.1429" style="stop-color:#FEE588"/>
		<stop  offset="0.5636" style="stop-color:#F79B32"/>
		<stop  offset="0.6867" style="stop-color:#F68B2C"/>
		<stop  offset="0.8883" style="stop-color:#F4762A"/>
		<stop  offset="1" style="stop-color:#F36D2A"/>
	</radialGradient>
	<path fill="url(#SVGID_2_)" d="M193.33,506.636c12.111,1.152,159.873,11.248,226.997-115.688
		c31.402-59.379,30.968-139.506-13.576-183.477c-78.707-77.731-161.166-11.847-169.358,12.862c-0.195,0.508,0.58,0.508,1.347,0.344
		c155.847-39.042,183.732,232.426-44.581,280.403C186.046,502.759,186.225,505.85,193.33,506.636z"/>
	
		<radialGradient id="SVGID_3_" cx="-250.4307" cy="-607.1494" r="205.4212" gradientTransform="matrix(0 -1 -1 0 -403.6221 -37.3066)" gradientUnits="userSpaceOnUse">
		<stop  offset="0" style="stop-color:#FAB117"/>
		<stop  offset="0.193" style="stop-color:#FAB218"/>
		<stop  offset="0.3352" style="stop-color:#F7B91C"/>
		<stop  offset="0.461" style="stop-color:#F6C324"/>
		<stop  offset="0.5767" style="stop-color:#F4D230"/>
		<stop  offset="0.6727" style="stop-color:#F0E03B"/>
		<stop  offset="0.7439" style="stop-color:#E5D534"/>
		<stop  offset="0.8645" style="stop-color:#CFBE2B"/>
		<stop  offset="1" style="stop-color:#B09E32"/>
	</radialGradient>
	<path fill="url(#SVGID_3_)" d="M4.932,193.38C3.722,205.51-6.382,353.265,120.593,420.403
		c59.348,31.395,139.471,30.96,183.45-13.606c77.738-78.685,11.866-161.14-12.858-169.328c-1.023-0.366-0.688,0-0.352,1.343
		C329.904,394.655,58.43,422.524,10.449,194.208C8.739,186.096,5.66,186.31,4.932,193.38z"/>
	
		<radialGradient id="SVGID_4_" cx="851.4141" cy="-481.5845" r="205.424" gradientTransform="matrix(1 0 0 -1 -553 -278)" gradientUnits="userSpaceOnUse">
		<stop  offset="0" style="stop-color:#A1C43A"/>
		<stop  offset="0.4545" style="stop-color:#A0CC3A"/>
		<stop  offset="1" style="stop-color:#3D9544"/>
	</radialGradient>
	<path fill="url(#SVGID_4_)" d="M318.138,4.985C306.034,3.788,158.257-6.301,91.133,120.659
		c-31.383,59.352-30.967,139.463,13.595,183.43c78.685,77.746,161.136,11.89,169.339-12.851c0.176-0.702,0.176-0.702-1.351-0.32
		C116.896,329.959,89.023,58.472,317.328,10.51C325.463,8.82,325.219,5.726,318.138,4.985z"/>
	<g opacity="0.6">
		
			<radialGradient id="SVGID_5_" cx="757.5234" cy="-280.9009" r="237.3501" gradientTransform="matrix(1.0987 0 0 -1.6216 -575.486 -3.6512)" gradientUnits="userSpaceOnUse">
			<stop  offset="0" style="stop-color:#F8E688"/>
			<stop  offset="1" style="stop-color:#FFFFFF"/>
		</radialGradient>
		<path opacity="0.38" fill="url(#SVGID_5_)" enable-background="new    " d="M255.733,107.831c-21.714,0-42.383,4.14-61.187,11.657
			c-56.826,73.954,2.587,146.935,25.717,154.642c0.939,0.274,0.588-0.366,0.344-1.358
			c-23.848-95.252,68.318-142.703,154.535-113.033C346.357,127.981,303.547,107.831,255.733,107.831z"/>
		
			<radialGradient id="SVGID_6_" cx="757.54" cy="-280.9204" r="237.3372" gradientTransform="matrix(1.0987 0 0 -1.6216 -575.486 -3.6512)" gradientUnits="userSpaceOnUse">
			<stop  offset="0" style="stop-color:#F8E688"/>
			<stop  offset="1" style="stop-color:#FFFFFF"/>
		</radialGradient>
		<path opacity="0.38" fill="url(#SVGID_6_)" enable-background="new    " d="M237.384,220.349c-0.194,0.507,0.58,0.507,1.347,0.343
			c94.149-23.6,141.585,66.089,114.082,151.421c36.5-27.137,59.92-69.139,59.92-116.28c0-18.395-3.557-35.978-10.043-52.209
			C325.234,131.999,245.443,196.043,237.384,220.349z"/>
		
			<radialGradient id="SVGID_7_" cx="757.5449" cy="-280.895" r="237.3094" gradientTransform="matrix(1.0987 0 0 -1.6216 -575.486 -3.6512)" gradientUnits="userSpaceOnUse">
			<stop  offset="0" style="stop-color:#F8E688"/>
			<stop  offset="1" style="stop-color:#FFFFFF"/>
		</radialGradient>
		<path opacity="0.38" fill="url(#SVGID_7_)" enable-background="new    " d="M291.185,237.469c-1.023-0.366-0.688,0-0.352,1.343
			c23.87,95.283-68.31,142.703-154.527,113.033c28.789,31.746,71.611,51.907,119.436,51.907c21.699,0,42.356-4.121,61.175-11.6
			C373.761,318.176,314.353,245.15,291.185,237.469z"/>
		
			<radialGradient id="SVGID_8_" cx="757.5313" cy="-280.9004" r="237.3449" gradientTransform="matrix(1.0987 0 0 -1.6216 -575.486 -3.6512)" gradientUnits="userSpaceOnUse">
			<stop  offset="0" style="stop-color:#F8E688"/>
			<stop  offset="1" style="stop-color:#FFFFFF"/>
		</radialGradient>
		<path opacity="0.38" fill="url(#SVGID_8_)" enable-background="new    " d="M274.067,291.238c0.176-0.702,0.176-0.702-1.351-0.32
			c-94.119,23.564-141.551-66.109-114.059-151.41c-36.512,27.102-59.936,69.127-59.936,116.326c0,18.326,3.575,35.909,10.039,52.117
			C186.217,379.576,266.017,315.536,274.067,291.238z"/>
	</g>
</g>
<g>
</g>
<g>
</g>
<g>
</g>
<g>
</g>
<g>
</g>
<g>
</g>
</svg>
