<?xml version="1.0" encoding="UTF-8" standalone="no" ?>
<!DOCTYPE svg PUBLIC "-//W3C//DTD SVG 1.1//EN" "http://www.w3.org/Graphics/SVG/1.1/DTD/svg11.dtd">
<svg xmlns="http://www.w3.org/2000/svg" xmlns:xlink="http://www.w3.org/1999/xlink" version="1.1" width="1080" height="1080" viewBox="0 0 1080 1080" xml:space="preserve">
<desc>Created with Fabric.js 5.2.4</desc>
<defs>
</defs>
<rect x="0" y="0" width="100%" height="100%" fill="transparent"></rect>
<g transform="matrix(1 0 0 1 540 540)" id="5233e928-6fb5-43c1-9e79-8694321379a6"  >
<rect style="stroke: none; stroke-width: 1; stroke-dasharray: none; stroke-linecap: butt; stroke-dashoffset: 0; stroke-linejoin: miter; stroke-miterlimit: 4; fill: rgb(255,255,255); fill-rule: nonzero; opacity: 1; visibility: hidden;" vector-effect="non-scaling-stroke"  x="-540" y="-540" rx="0" ry="0" width="1080" height="1080" />
</g>
<g transform="matrix(1 0 0 1 540 540)" id="6418d72d-2435-42c8-aad8-65732e7ead49"  >
</g>
<g transform="matrix(13.69 0 0 13.69 540 540)"  >
<path style="stroke: none; stroke-width: 1; stroke-dasharray: none; stroke-linecap: butt; stroke-dashoffset: 0; stroke-linejoin: miter; stroke-miterlimit: 4; fill: rgb(38,137,201); fill-rule: evenodd; opacity: 1;" vector-effect="non-scaling-stroke"  transform=" translate(-41.4, -50.36)" d="M 41.9 46.4 C 50.14530098091075 46.23581634129681 56.71159362213077 39.44618041296046 56.599999999999994 31.20000000000001 C 56.6 22.8 50 16 41.9 16 C 33.8 16 27 22.8 27 31.2 C 26.94649140690348 35.21278655313685 28.503190447362005 39.07967728722734 31.32205661667986 41.93612833880277 C 34.14092278599772 44.792579390378194 37.986856722803466 46.4003567399155 42 46.4 z M 56.2 42.3 C 57.800000000000004 43.099999999999994 59.7 43.5 61.6 43.5 C 68.6 43.5 74.4 37.5 74.4 30.3 C 74.48038084616375 26.83492155485866 73.17371298381879 23.481212377286898 70.77026529685787 20.983880015054076 C 68.36681760989697 18.486547652821255 65.06561464809133 17.052391052174045 61.599999999999994 17 C 59.191836924468205 17.023938853921944 56.83765814365326 17.716344377691048 54.8 19 C 61.225253848190654 25.234432916092643 61.83251933680075 35.341065690817736 56.20000000000001 42.29999999999999 z M 21.700000000000003 43.5 C 23.700000000000003 43.5 25.500000000000004 43.1 27.200000000000003 42.3 C 21.518714420482446 35.35677007607633 22.128211198008238 25.21300227868277 28.599999999999998 19.000000000000004 C 26.6 17.7 24.200000000000003 16.9 21.6 16.9 C 18.13407446196921 16.97833447996655 14.843008988494198 18.437800601174157 12.458207716830973 20.954047612220393 C 10.073406445167748 23.470294623266632 8.792443784719358 26.834858186671113 8.900000000000002 30.299999999999994 C 8.846585576610982 33.765065623594566 10.178885813525447 37.10803614367496 12.601022074280648 39.58650115468028 C 15.023158335035848 42.064966165685604 18.334622093918973 43.473754152932976 21.800000000000004 43.5 z M 17 48.4 C 12.2 48.4 9.8 44.4 9.8 44.4 C 5.800000000000001 44.4 4.000000000000001 47.699999999999996 4.000000000000001 51.699999999999996 L 4.000000000000001 67.19999999999999 C 4.000000000000001 70.6 10 73.6 17.400000000000002 75.39999999999999 L 17.400000000000002 54.6 C 17.400000000000002 50.9 20.200000000000003 47.9 23.800000000000004 47.4 C 21.800000000000004 47.699999999999996 18.300000000000004 48.4 17.000000000000004 48.4 z M 54.6 49.8 C 54.6 49.8 50.7 53.699999999999996 45.900000000000006 53.699999999999996 C 44.400000000000006 53.699999999999996 43.2 51.199999999999996 41.60000000000001 51.199999999999996 C 39.10000000000001 51.199999999999996 38.50000000000001 53.699999999999996 36.30000000000001 53.699999999999996 C 32.90000000000001 53.699999999999996 28.100000000000012 49.8 28.100000000000012 49.8 C 24.100000000000012 49.8 20.900000000000013 53 20.900000000000013 57 L 20.900000000000013 78.3 C 20.900000000000013 86.7 61.90000000000001 87 61.90000000000001 78.3 L 61.90000000000001 57 C 61.90000000000001 53 58.600000000000016 49.8 54.600000000000016 49.8 z M 52.5 74.4 C 47.9 75.30000000000001 35 75.4 30.3 74.4 C 28.6 74.10000000000001 27.6 73.7 27.6 72.4 C 27.6 71.30000000000001 28.400000000000002 70.5 30.3 71 C 37.672267824910655 71.9060200784999 45.12773217508937 71.90602007849994 52.50000000000003 71.00000000000001 C 55.3 70.7 55.5 71.3 55.6 72.5 C 55.7 73.8 54.4 74 52.5 74.4 z M 52.5 68.10000000000001 C 47.9 69.10000000000001 35 69.10000000000001 30.3 68.10000000000001 C 28.6 67.80000000000001 27.6 67.4 27.6 66.2 C 27.6 65 28.400000000000002 64.2 30.3 64.7 C 33.9 65.7 45.7 65.7 52.5 64.7 C 55.3 64.4 55.5 65 55.6 66.2 C 55.7 67.5 54.4 67.8 52.5 68.2 z M 73 44.5 C 73 44.5 70.5 48.4 65.7 48.4 C 64.3 48.4 60.900000000000006 47.6 58.900000000000006 47.4 C 62.50000000000001 47.9 65.2 50.9 65.2 54.6 L 65.2 75.3 C 72.60000000000001 73.6 78.8 70.6 78.8 67.2 L 78.8 51.7 C 78.8 47.7 77 44.5 73 44.5 z" stroke-linecap="round" />
</g>
</svg>