<?xml version="1.0" standalone="no"?>
<!DOCTYPE svg PUBLIC "-//W3C//DTD SVG 20010904//EN"
 "http://www.w3.org/TR/2001/REC-SVG-20010904/DTD/svg10.dtd">
<svg version="1.0" xmlns="http://www.w3.org/2000/svg"
 width="180.000000pt" height="180.000000pt" viewBox="0 0 180.000000 180.000000"
 preserveAspectRatio="xMidYMid meet">
<metadata>
Created by potrace 1.14, written by Peter Selinger 2001-2017
</metadata>
<g transform="translate(0.000000,180.000000) scale(0.100000,-0.100000)"
fill="#000000" stroke="none">
<path d="M506 1753 c-64 -19 -127 -63 -163 -112 -15 -22 -47 -49 -70 -61 -44
-22 -93 -71 -117 -119 -9 -16 -23 -31 -32 -35 -9 -4 -14 -9 -11 -13 4 -3 0
-11 -9 -18 -9 -6 -23 -33 -32 -60 -15 -44 -17 -102 -16 -450 1 -384 2 -402 22
-441 11 -22 28 -47 37 -54 9 -8 32 -37 50 -66 30 -47 90 -104 110 -104 4 0 41
-34 81 -75 40 -41 80 -75 89 -75 8 0 15 -3 15 -8 0 -23 114 -30 485 -28 377 1
392 2 435 23 71 34 127 89 160 157 28 59 46 161 30 171 -4 3 -202 5 -440 5
-337 1 -439 4 -464 14 -77 33 -116 99 -112 191 3 63 6 83 19 100 77 105 41 99
547 101 239 1 439 2 443 3 10 1 3 706 -8 746 -10 36 -59 111 -94 143 -14 13
-51 36 -81 50 l-55 27 -385 1 c-313 1 -394 -1 -434 -13z"/>
<path d="M703 735 c-78 -33 -114 -105 -93 -184 11 -42 31 -67 75 -96 28 -18
53 -19 483 -20 439 0 455 0 490 20 58 32 82 76 78 144 -2 49 -8 63 -34 93 -18
19 -47 39 -66 45 -55 17 -893 15 -933 -2z m85 -84 c21 -1 43 -66 33 -94 -21
-53 -86 -66 -130 -26 -46 43 -5 135 56 125 16 -2 34 -5 41 -5z"/>
</g>
</svg>
